<svg width="24" height="24" viewBox="0 0 24 24" fill="none" xmlns="http://www.w3.org/2000/svg">
<path fill-rule="evenodd" clip-rule="evenodd" d="M13 4V5C13 5.55228 12.5523 6 12 6C11.4477 6 11 5.55228 11 5V4C11 3.44772 11.4477 3 12 3C12.5523 3 13 3.44772 13 4ZM12 8C15.3 8 18 10.7 18 14V19H20V21H4V19H6V14C6 10.7 8.7 8 12 8ZM8 14V19H16V14C16 11.8 14.2 10 12 10C9.8 10 8 11.8 8 14ZM4 10H3C2.44772 10 2 10.4477 2 11C2 11.5523 2.44772 12 3 12H4C4.55228 12 5 11.5523 5 11C5 10.4477 4.55228 10 4 10ZM20 10H21C21.5523 10 22 10.4477 22 11C22 11.5523 21.5523 12 21 12H20C19.4477 12 19 11.5523 19 11C19 10.4477 19.4477 10 20 10ZM17.0636 4.7943L16.3565 5.5014C15.966 5.89192 15.966 6.52508 16.3565 6.9156C16.747 7.30612 17.3802 7.30612 17.7707 6.9156L18.4778 6.2085C18.8683 5.81798 18.8683 5.18482 18.4778 4.7943C18.0873 4.40378 17.4541 4.40378 17.0636 4.7943ZM6.77071 5.29436L7.47781 6.00146C7.86833 6.39199 7.86833 7.02514 7.47781 7.41566C7.08729 7.80619 6.45413 7.80619 6.06361 7.41566L5.35651 6.70856C4.96599 6.31804 4.96599 5.68489 5.35651 5.29436C5.74703 4.90384 6.38019 4.90384 6.77071 5.29436Z" fill="#888888"/>
<rect x="2" y="19" width="20" height="2" rx="1" fill="#888888"/>
</svg>
